<?xml version="1.0" encoding="UTF-8"?>
<!DOCTYPE svg
PUBLIC "-//W3C//DTD SVG 1.1//EN"
       "http://www.w3.org/Graphics/SVG/1.1/DTD/svg11.dtd">
<svg viewBox="97 10 531 404" width="434px" height="394px" xmlns="http://www.w3.org/2000/svg" version="1.1">
   <line x1="113" y1="243" x2="103" y2="243" style="stroke:#333;stroke-width:1;"/>
   <line x1="102" y1="55" x2="112" y2="55" style="stroke:#333;stroke-width:1;"/>
   <line x1="103" y1="243" x2="102" y2="55" style="stroke:#333;stroke-width:1;"/>
   <line x1="105.5" y1="243" x2="109.03553390593" y2="246.53553390593" style="stroke:#333;stroke-width:2;"/>
   <line x1="105.5" y1="243" x2="109.03553390593" y2="239.46446609407" style="stroke:#333;stroke-width:2;"/>
   <line x1="107" y1="55" x2="103.46446609407" y2="58.535533905933" style="stroke:#333;stroke-width:2;"/>
   <line x1="107" y1="55" x2="103.46446609407" y2="51.464466094067" style="stroke:#333;stroke-width:2;"/>
   <line x1="384" y1="241" x2="374" y2="241" style="stroke:#bbb;stroke-width:1;"/>
   <line x1="379" y1="309" x2="389" y2="309" style="stroke:#bbb;stroke-width:1;"/>
   <line x1="374" y1="241" x2="379" y2="309" style="stroke:#bbb;stroke-width:1;"/>
   <line x1="376.5" y1="241" x2="380.03553390593" y2="244.53553390593" style="stroke:#bbb;stroke-width:2;"/>
   <line x1="376.5" y1="241" x2="380.03553390593" y2="237.46446609407" style="stroke:#bbb;stroke-width:2;"/>
   <line x1="384" y1="309" x2="380.46446609407" y2="312.53553390593" style="stroke:#bbb;stroke-width:2;"/>
   <line x1="384" y1="309" x2="380.46446609407" y2="305.46446609407" style="stroke:#bbb;stroke-width:2;"/>
   <line x1="382" y1="76" x2="372" y2="76" style="stroke:#0bf;stroke-width:1;"/>
   <line x1="374" y1="181" x2="384" y2="181" style="stroke:#0bf;stroke-width:1;"/>
   <line x1="372" y1="76" x2="374" y2="181" style="stroke:#0bf;stroke-width:1;"/>
   <line x1="374.5" y1="76" x2="378.03553390593" y2="79.535533905933" style="stroke:#0bf;stroke-width:2;"/>
   <line x1="374.5" y1="76" x2="378.03553390593" y2="72.464466094067" style="stroke:#0bf;stroke-width:2;"/>
   <line x1="379" y1="181" x2="375.46446609407" y2="184.53553390593" style="stroke:#0bf;stroke-width:2;"/>
   <line x1="379" y1="181" x2="375.46446609407" y2="177.46446609407" style="stroke:#0bf;stroke-width:2;"/>
   <line x1="382" y1="96" x2="372" y2="96" style="stroke:#cb0;stroke-width:1;"/>
   <line x1="247" y1="143" x2="237" y2="143" style="stroke:#cb0;stroke-width:1;"/>
   <line x1="372" y1="96" x2="247" y2="143" style="stroke:#cb0;stroke-width:1;"/>
   <line x1="374.5" y1="96" x2="378.03553390593" y2="99.535533905933" style="stroke:#cb0;stroke-width:2;"/>
   <line x1="374.5" y1="96" x2="378.03553390593" y2="92.464466094067" style="stroke:#cb0;stroke-width:2;"/>
   <line x1="242" y1="143" x2="245.53553390593" y2="146.53553390593" style="stroke:#cb0;stroke-width:2;"/>
   <line x1="242" y1="143" x2="245.53553390593" y2="139.46446609407" style="stroke:#cb0;stroke-width:2;"/>
   <rect width="124" height="20" x="113" y="113" style="fill:#007;stroke:black;"/>
   <text width="124" height="20" x="118" y="127" style="fill:#fff;" font-family="Arial" font-size="16px"> cartoes</text>
   <rect width="124" height="20" x="113" y="133" style="fill:#aea;stroke:black;"/>
   <text width="124" height="20" x="118" y="147" style="fill:black;" font-family="Arial" font-size="16px">id</text>
   <rect width="124" height="20" x="113" y="153" style="fill:none;stroke:black;"/>
   <text width="124" height="20" x="118" y="167" style="fill:black;" font-family="Arial" font-size="16px">titulo</text>
   <rect width="124" height="20" x="113" y="173" style="fill:none;stroke:black;"/>
   <text width="124" height="20" x="118" y="187" style="fill:black;" font-family="Arial" font-size="16px">imagem</text>
   <rect width="124" height="20" x="113" y="193" style="fill:none;stroke:black;"/>
   <text width="124" height="20" x="118" y="207" style="fill:black;" font-family="Arial" font-size="16px">som</text>
   <rect width="124" height="20" x="113" y="213" style="fill:none;stroke:black;"/>
   <text width="124" height="20" x="118" y="227" style="fill:black;" font-family="Arial" font-size="16px">texto_alternativo</text>
   <rect width="124" height="20" x="113" y="233" style="fill:none;stroke:black;"/>
   <text width="124" height="20" x="118" y="247" style="fill:black;" font-family="Arial" font-size="16px">id_grupo</text>
   <rect width="113" height="20" x="112" y="25" style="fill:#007;stroke:black;"/>
   <text width="113" height="20" x="117" y="39" style="fill:#fff;" font-family="Arial" font-size="16px"> grupos_cartoes</text>
   <rect width="113" height="20" x="112" y="45" style="fill:#aea;stroke:black;"/>
   <text width="113" height="20" x="117" y="59" style="fill:black;" font-family="Arial" font-size="16px">id</text>
   <rect width="113" height="20" x="112" y="65" style="fill:none;stroke:black;"/>
   <text width="113" height="20" x="117" y="79" style="fill:black;" font-family="Arial" font-size="16px">nome</text>
   <rect width="127" height="20" x="389" y="279" style="fill:#007;stroke:black;"/>
   <text width="127" height="20" x="394" y="293" style="fill:#fff;" font-family="Arial" font-size="16px"> grupos_pranchas</text>
   <rect width="127" height="20" x="389" y="299" style="fill:#aea;stroke:black;"/>
   <text width="127" height="20" x="394" y="313" style="fill:black;" font-family="Arial" font-size="16px">id</text>
   <rect width="127" height="20" x="389" y="319" style="fill:none;stroke:black;"/>
   <text width="127" height="20" x="394" y="333" style="fill:black;" font-family="Arial" font-size="16px">nome</text>
   <rect width="78" height="20" x="384" y="151" style="fill:#007;stroke:black;"/>
   <text width="78" height="20" x="389" y="165" style="fill:#fff;" font-family="Arial" font-size="16px"> pranchas</text>
   <rect width="78" height="20" x="384" y="171" style="fill:#aea;stroke:black;"/>
   <text width="78" height="20" x="389" y="185" style="fill:black;" font-family="Arial" font-size="16px">id</text>
   <rect width="78" height="20" x="384" y="191" style="fill:none;stroke:black;"/>
   <text width="78" height="20" x="389" y="205" style="fill:black;" font-family="Arial" font-size="16px">nome</text>
   <rect width="78" height="20" x="384" y="211" style="fill:none;stroke:black;"/>
   <text width="78" height="20" x="389" y="225" style="fill:black;" font-family="Arial" font-size="16px">descricao</text>
   <rect width="78" height="20" x="384" y="231" style="fill:none;stroke:black;"/>
   <text width="78" height="20" x="389" y="245" style="fill:black;" font-family="Arial" font-size="16px">id_grupo</text>
   <rect width="134" height="20" x="382" y="26" style="fill:#007;stroke:black;"/>
   <text width="134" height="20" x="387" y="40" style="fill:#fff;" font-family="Arial" font-size="16px"> pranchas_cartoes</text>
   <rect width="134" height="20" x="382" y="46" style="fill:#aea;stroke:black;"/>
   <text width="134" height="20" x="387" y="60" style="fill:black;" font-family="Arial" font-size="16px">id</text>
   <rect width="134" height="20" x="382" y="66" style="fill:none;stroke:black;"/>
   <text width="134" height="20" x="387" y="80" style="fill:black;" font-family="Arial" font-size="16px">id_prancha</text>
   <rect width="134" height="20" x="382" y="86" style="fill:none;stroke:black;"/>
   <text width="134" height="20" x="387" y="100" style="fill:black;" font-family="Arial" font-size="16px">id_cartao</text>
   <rect width="134" height="20" x="382" y="106" style="fill:none;stroke:black;"/>
   <text width="134" height="20" x="387" y="120" style="fill:black;" font-family="Arial" font-size="16px">ordem</text>
   <rect width="67" height="20" x="136" y="269" style="fill:#007;stroke:black;"/>
   <text width="67" height="20" x="141" y="283" style="fill:#fff;" font-family="Arial" font-size="16px"> usuarios</text>
   <rect width="67" height="20" x="136" y="289" style="fill:#aea;stroke:black;"/>
   <text width="67" height="20" x="141" y="303" style="fill:black;" font-family="Arial" font-size="16px">id</text>
   <rect width="67" height="20" x="136" y="309" style="fill:none;stroke:black;"/>
   <text width="67" height="20" x="141" y="323" style="fill:black;" font-family="Arial" font-size="16px">nome</text>
   <rect width="67" height="20" x="136" y="329" style="fill:none;stroke:black;"/>
   <text width="67" height="20" x="141" y="343" style="fill:black;" font-family="Arial" font-size="16px">email</text>
   <rect width="67" height="20" x="136" y="349" style="fill:none;stroke:black;"/>
   <text width="67" height="20" x="141" y="363" style="fill:black;" font-family="Arial" font-size="16px">senha</text>
   <rect width="67" height="20" x="136" y="369" style="fill:none;stroke:black;"/>
   <text width="67" height="20" x="141" y="383" style="fill:black;" font-family="Arial" font-size="16px">tipo</text>
</svg>
