<?xml version="1.0" encoding="utf-8"?>
<svg xmlns="http://www.w3.org/2000/svg" height="512pt" version="1.1" viewBox="0 0 512 512" width="512pt">
<path d="M 0.00 0.00 L 512.00 0.00 L 512.00 512.00 L 0.00 512.00 L 0.00 314.22 C 1.20 325.89 8.05 336.79 18.08 342.89 C 24.38 346.58 31.71 348.21 38.97 348.19 C 71.31 348.25 103.64 348.24 135.97 348.22 C 144.54 348.14 153.45 348.57 161.55 345.27 C 175.16 340.17 185.32 326.63 185.71 312.01 C 185.59 274.67 185.66 237.33 185.85 199.99 C 185.87 193.16 183.96 186.33 180.44 180.47 C 173.50 169.60 161.03 162.33 148.05 162.30 C 111.70 162.25 75.35 162.29 39.01 162.27 C 26.16 161.81 13.03 168.17 6.04 179.08 C 3.00 183.61 1.40 188.89 0.61 194.24 L 0.00 192.06 L 0.00 0.00 Z" fill="transparent" opacity="1.00" stroke="transparent" stroke-width="0.25"/>
<path d="M 6.04 179.08 C 13.03 168.17 26.16 161.81 39.01 162.27 C 75.35 162.29 111.70 162.25 148.05 162.30 C 161.03 162.33 173.50 169.60 180.44 180.47 C 183.96 186.33 185.87 193.16 185.85 199.99 C 185.66 237.33 185.59 274.67 185.71 312.01 C 185.32 326.63 175.16 340.17 161.55 345.27 C 153.45 348.57 144.54 348.14 135.97 348.22 C 103.64 348.24 71.31 348.25 38.97 348.19 C 31.71 348.21 24.38 346.58 18.08 342.89 C 8.05 336.79 1.20 325.89 0.00 314.22 L 0.00 192.06 L 0.61 194.24 C 1.40 188.89 3.00 183.61 6.04 179.08 Z" fill="#45adee" opacity="1.00" stroke="#45adee" stroke-width="0.25"/>
<path d="M 13.14 188.05 C 17.24 178.90 26.74 171.91 37.01 172.34 C 73.67 172.03 110.33 172.38 146.98 172.25 C 157.56 171.83 167.53 178.60 172.30 187.82 C 175.09 193.07 175.02 199.21 175.25 205.00 C 175.15 231.99 175.25 258.97 175.17 285.96 C 174.46 295.30 175.04 304.67 174.71 314.02 C 174.39 326.84 162.33 336.89 150.08 337.92 C 145.19 338.22 140.29 338.17 135.39 338.25 C 135.62 330.61 133.90 322.82 129.68 316.38 C 125.80 310.08 119.76 305.44 113.30 302.00 C 115.86 299.32 118.54 296.58 119.86 293.04 C 122.58 285.70 121.93 277.47 119.14 270.24 C 125.22 275.70 130.53 281.93 136.22 287.76 C 138.90 290.66 143.15 288.94 145.44 286.47 C 145.12 279.90 145.22 273.32 145.35 266.75 C 151.16 265.17 156.03 260.28 156.17 254.02 C 156.45 244.00 156.09 233.97 156.31 223.94 C 156.50 218.39 155.16 212.08 150.33 208.72 C 145.11 205.71 138.81 205.78 132.97 205.86 C 129.89 205.85 126.88 206.66 124.24 208.24 C 124.58 210.66 123.74 214.24 126.72 215.27 C 133.00 216.22 139.63 214.90 145.66 217.53 C 146.85 224.28 146.11 231.15 146.29 237.96 C 146.14 242.95 146.74 247.98 146.06 252.94 C 143.93 257.10 138.97 258.49 135.70 261.53 C 134.65 265.32 135.33 269.34 135.28 273.22 C 130.40 268.57 126.43 262.93 120.87 259.04 C 117.55 257.33 114.11 259.43 111.06 260.73 C 104.43 257.92 97.16 256.34 89.97 257.64 C 82.24 258.70 75.63 263.99 71.67 270.53 C 68.72 276.15 67.68 282.88 68.98 289.11 C 70.06 294.25 73.77 298.14 77.00 302.05 C 64.03 309.01 55.36 323.35 56.12 338.17 C 49.72 338.30 43.32 338.33 36.93 338.26 C 27.39 338.27 18.23 332.46 13.89 324.03 C 11.01 318.87 10.99 312.78 10.77 307.05 C 10.74 272.72 10.77 238.39 10.77 204.06 C 10.93 198.68 10.81 193.03 13.14 188.05 Z" fill="#ffffff" opacity="1.00" stroke="#ffffff" stroke-width="0.25"/>
<path d="M 34.98 195.95 C 38.19 192.92 42.53 191.26 46.94 191.34 C 62.33 191.31 77.72 191.14 93.11 191.48 C 100.74 191.45 107.61 198.46 107.59 206.06 C 108.01 213.71 107.79 221.38 107.79 229.04 C 107.76 233.11 107.50 237.53 104.94 240.90 C 102.46 244.37 98.24 246.47 93.96 246.34 C 86.82 246.38 79.68 246.19 72.54 246.44 C 68.38 251.63 63.62 256.29 58.82 260.87 C 55.51 264.68 48.71 262.76 46.66 258.55 C 46.13 254.65 46.64 250.69 46.55 246.77 C 43.98 246.68 41.28 247.13 38.81 246.28 C 34.93 243.73 31.05 240.16 30.75 235.21 C 29.96 227.51 30.66 219.75 30.41 212.02 C 30.45 206.50 30.40 199.86 34.98 195.95 Z" fill="#45adee" opacity="1.00" stroke="#45adee" stroke-width="0.25"/>
<path d="M 427.53 193.81 C 429.86 190.20 435.02 191.74 438.49 192.46 C 438.68 198.86 438.43 205.27 438.72 211.68 C 441.99 209.21 445.74 206.99 450.02 207.33 C 456.25 206.70 462.36 210.63 464.79 216.33 C 467.01 220.55 466.50 225.45 466.52 230.05 C 466.28 236.80 466.44 243.56 466.44 250.32 C 463.21 251.40 459.80 251.42 456.54 250.47 C 456.38 242.65 456.54 234.83 456.44 227.02 C 456.67 221.98 452.29 216.71 447.01 217.26 C 442.47 217.07 438.06 221.28 438.42 225.89 C 438.36 232.61 438.44 239.33 438.39 246.05 C 438.45 247.64 437.89 249.13 437.34 250.59 C 434.47 250.83 431.58 250.74 428.73 250.36 C 427.94 248.66 427.41 246.85 427.54 244.97 C 427.59 227.91 427.59 210.86 427.53 193.81 Z" fill="#45adee" opacity="1.00" stroke="#45adee" stroke-width="0.25"/>
<path d="M 216.63 193.67 C 222.29 192.07 228.23 192.92 234.03 192.69 C 240.46 192.28 247.32 193.32 252.47 197.47 C 261.90 204.63 260.72 221.55 250.27 227.22 C 243.48 231.68 235.08 230.18 227.44 230.54 C 227.31 237.18 227.40 243.82 227.38 250.46 C 224.11 250.82 220.82 250.83 217.54 250.77 C 216.73 248.95 216.40 246.99 216.51 245.01 C 216.66 227.90 216.43 210.78 216.63 193.67 Z" fill="#45adee" opacity="1.00" stroke="#45adee" stroke-width="0.25"/>
<path d="M 41.56 205.31 C 44.10 201.59 48.77 200.53 53.02 200.58 C 64.34 200.54 75.67 200.28 86.98 200.63 C 91.29 200.81 96.90 202.55 97.65 207.47 C 98.05 214.67 97.84 221.91 97.71 229.12 C 97.85 231.41 96.78 233.45 95.71 235.40 C 87.05 237.50 78.10 235.83 69.30 236.32 C 64.73 240.05 60.80 244.47 56.47 248.46 C 56.17 244.44 56.96 239.92 54.20 236.57 C 50.61 236.65 47.02 236.58 43.43 236.42 C 42.81 235.84 42.18 235.27 41.55 234.71 C 40.03 227.89 41.29 220.93 41.17 214.04 C 41.21 211.13 41.02 208.18 41.56 205.31 Z" fill="#ffffff" opacity="1.00" stroke="#ffffff" stroke-width="0.25"/>
<path d="M 227.52 202.35 C 233.63 202.72 240.78 200.81 245.91 205.09 C 250.14 209.79 247.99 217.61 242.90 220.69 C 237.90 221.96 232.62 221.08 227.51 221.34 C 227.25 215.01 227.39 208.67 227.52 202.35 Z" fill="#ffffff" opacity="1.00" stroke="#ffffff" stroke-width="0.25"/>
<path d="M 124.24 208.24 C 126.88 206.66 129.89 205.85 132.97 205.86 C 138.81 205.78 145.11 205.71 150.33 208.72 C 155.16 212.08 156.50 218.39 156.31 223.94 C 156.09 233.97 156.45 244.00 156.17 254.02 C 156.03 260.28 151.16 265.17 145.35 266.75 C 145.22 273.32 145.12 279.90 145.44 286.47 C 143.15 288.94 138.90 290.66 136.22 287.76 C 130.53 281.93 125.22 275.70 119.14 270.24 C 121.93 277.47 122.58 285.70 119.86 293.04 C 118.54 296.58 115.86 299.32 113.30 302.00 C 119.76 305.44 125.80 310.08 129.68 316.38 C 133.90 322.82 135.62 330.61 135.39 338.25 C 140.29 338.17 145.19 338.22 150.08 337.92 C 142.06 338.72 133.96 338.28 125.91 338.32 C 126.16 326.60 118.59 315.84 108.53 310.38 C 105.62 308.70 102.14 309.43 98.96 309.43 C 94.49 309.74 90.02 309.04 85.55 309.29 C 80.21 309.95 76.38 314.21 72.95 317.96 C 67.92 323.51 65.73 330.97 65.10 338.30 C 62.10 338.35 59.11 338.38 56.11 338.41 L 56.12 338.17 C 55.36 323.35 64.03 309.01 77.00 302.05 C 73.77 298.14 70.06 294.25 68.98 289.11 C 67.68 282.88 68.72 276.15 71.67 270.53 C 75.63 263.99 82.24 258.70 89.97 257.64 C 97.16 256.34 104.43 257.92 111.06 260.73 C 114.11 259.43 117.55 257.33 120.87 259.04 C 126.43 262.93 130.40 268.57 135.28 273.22 C 135.33 269.34 134.65 265.32 135.70 261.53 C 138.97 258.49 143.93 257.10 146.06 252.94 C 146.74 247.98 146.14 242.95 146.29 237.96 C 146.11 231.15 146.85 224.28 145.66 217.53 C 139.63 214.90 133.00 216.22 126.72 215.27 C 123.74 214.24 124.58 210.66 124.24 208.24 Z" fill="#80b653" opacity="1.00" stroke="#80b653" stroke-width="0.25"/>
<path d="M 275.05 211.61 C 278.93 209.06 283.41 207.04 288.17 207.68 C 289.12 210.57 290.36 214.34 287.79 216.79 C 285.71 217.70 283.29 217.50 281.17 218.37 C 277.51 219.56 274.68 223.10 274.74 227.01 C 274.49 234.69 275.04 242.40 274.40 250.07 C 273.85 250.40 272.75 251.06 272.20 251.39 C 269.28 251.48 266.03 251.61 264.39 248.71 C 264.61 235.38 264.09 222.03 264.67 208.70 C 266.82 208.16 269.01 207.36 271.27 207.74 C 273.13 208.31 273.99 210.15 275.05 211.61 Z" fill="#45adee" opacity="1.00" stroke="#45adee" stroke-width="0.25"/>
<path d="M 295.79 211.79 C 303.68 206.22 315.67 205.28 323.33 211.70 C 328.39 215.90 328.45 223.00 328.35 229.02 C 328.06 236.21 328.90 243.48 327.73 250.61 C 324.24 251.79 320.29 251.62 318.09 248.28 C 312.94 251.19 306.71 252.75 300.95 250.75 C 295.25 248.86 291.15 242.94 291.67 236.91 C 291.92 231.24 296.31 226.21 301.78 224.88 C 306.91 223.63 312.25 223.80 317.48 223.29 C 318.08 219.15 313.82 216.14 310.01 216.55 C 305.22 216.72 301.20 220.25 296.30 219.74 C 294.13 217.77 293.09 213.75 295.79 211.79 Z" fill="#45adee" opacity="1.00" stroke="#45adee" stroke-width="0.25"/>
<path d="M 347.76 211.21 C 351.29 209.43 354.80 206.99 358.96 207.37 C 364.88 206.97 371.08 209.68 374.18 214.86 C 376.81 219.05 376.51 224.20 376.60 228.95 C 376.47 236.13 376.64 243.32 376.43 250.51 C 373.20 251.59 369.69 251.66 366.51 250.36 C 365.91 242.25 366.53 234.11 366.11 226.00 C 365.87 222.16 363.32 217.54 359.09 217.32 C 352.83 216.01 347.44 222.10 347.60 228.04 C 347.39 235.50 347.66 242.97 347.40 250.43 C 344.39 250.77 341.37 250.83 338.35 250.72 C 337.15 245.90 337.85 240.91 337.65 236.02 C 337.76 227.33 337.26 218.63 337.80 209.96 C 339.64 206.84 344.16 208.37 347.13 208.68 C 347.28 209.31 347.60 210.58 347.76 211.21 Z" fill="#45adee" opacity="1.00" stroke="#45adee" stroke-width="0.25"/>
<path d="M 398.95 207.93 C 405.91 206.32 413.24 207.59 419.53 210.86 C 419.81 213.86 419.65 216.93 418.26 219.67 C 413.17 218.91 408.39 216.15 403.09 217.39 C 393.30 218.88 389.97 232.70 396.59 239.43 C 399.67 242.10 403.94 243.23 407.96 242.61 C 411.08 241.63 414.02 240.17 417.16 239.25 C 419.03 241.51 421.97 245.44 419.00 247.97 C 410.61 253.95 398.07 253.49 390.11 246.94 C 382.72 240.49 381.40 229.24 384.49 220.32 C 387.13 214.32 392.63 209.65 398.95 207.93 Z" fill="#45adee" opacity="1.00" stroke="#45adee" stroke-width="0.25"/>
<path d="M 474.60 214.43 C 480.78 208.10 490.57 206.04 499.03 208.12 C 503.29 209.14 506.99 212.20 508.66 216.27 C 510.56 220.93 510.33 226.09 510.34 231.03 C 510.29 237.48 510.41 243.93 510.32 250.39 C 507.45 250.72 504.56 250.82 501.68 250.72 C 501.31 250.02 500.58 248.62 500.22 247.92 C 495.69 249.89 491.01 252.43 485.88 251.69 C 480.77 251.29 475.52 248.43 473.42 243.58 C 471.18 238.42 472.85 231.81 477.50 228.54 C 483.52 223.60 491.71 224.51 498.94 223.74 C 498.63 221.07 497.73 217.95 494.93 216.94 C 489.66 215.03 484.75 218.57 479.96 220.20 C 477.76 221.24 476.14 219.15 474.58 217.98 C 474.59 216.79 474.60 215.61 474.60 214.43 Z" fill="#45adee" opacity="1.00" stroke="#45adee" stroke-width="0.25"/>
<path d="M 49.64 215.68 C 50.98 213.79 53.33 213.38 55.49 213.39 C 56.50 214.39 57.53 215.38 58.57 216.37 C 59.02 219.31 57.73 221.91 55.29 223.54 C 53.74 223.14 52.19 222.75 50.64 222.38 C 49.32 220.43 48.74 217.92 49.64 215.68 Z" fill="#45adee" opacity="1.00" stroke="#45adee" stroke-width="0.25"/>
<path d="M 65.10 220.87 C 62.55 216.99 67.74 211.35 71.80 214.10 C 75.11 215.85 74.08 220.54 71.85 222.79 C 69.54 222.55 66.44 223.38 65.10 220.87 Z" fill="#45adee" opacity="1.00" stroke="#45adee" stroke-width="0.25"/>
<path d="M 80.10 218.05 C 79.72 213.31 87.02 212.08 89.24 215.78 C 91.98 218.98 88.48 223.24 84.92 223.54 C 82.39 222.85 79.57 221.11 80.10 218.05 Z" fill="#45adee" opacity="1.00" stroke="#45adee" stroke-width="0.25"/>
<path d="M 305.00 233.04 C 308.98 231.21 313.52 231.64 317.78 231.30 C 317.74 234.13 317.63 236.96 317.53 239.79 C 313.99 242.85 308.50 244.64 304.33 241.74 C 300.89 239.95 301.80 234.61 305.00 233.04 Z" fill="#ffffff" opacity="1.00" stroke="#ffffff" stroke-width="0.25"/>
<path d="M 484.80 233.83 C 489.08 231.67 493.95 231.66 498.64 231.61 C 498.63 234.42 498.55 237.23 498.44 240.03 C 494.85 242.83 489.42 244.04 485.36 241.71 C 482.31 240.05 483.55 236.28 484.80 233.83 Z" fill="#ffffff" opacity="1.00" stroke="#ffffff" stroke-width="0.25"/>
<path d="M 89.46 267.73 C 94.45 266.67 99.99 266.85 104.41 269.64 C 113.75 274.92 114.10 290.35 105.12 296.15 C 101.50 298.25 97.25 300.23 92.96 299.26 C 88.58 298.28 84.40 295.94 81.64 292.34 C 75.76 284.16 79.63 270.75 89.46 267.73 Z" fill="#ffffff" opacity="1.00" stroke="#ffffff" stroke-width="0.25"/>
<path d="M 215.57 272.77 C 218.93 271.86 224.31 270.66 225.60 275.10 C 229.75 287.97 232.65 301.23 236.14 314.30 C 239.45 302.95 242.00 291.39 245.22 280.01 C 245.98 277.74 246.53 275.21 248.35 273.52 C 250.48 271.97 253.26 272.61 255.71 272.50 C 257.31 274.57 258.61 276.87 259.24 279.43 C 261.91 289.48 264.84 299.47 267.90 309.41 C 268.25 310.47 268.80 311.47 269.32 312.48 C 271.71 305.40 272.92 298.00 275.10 290.87 C 276.90 285.07 277.39 278.77 280.29 273.38 C 283.12 271.84 289.14 270.71 290.17 274.94 C 289.46 280.98 286.76 286.58 285.15 292.41 C 281.72 303.84 278.49 315.34 275.52 326.90 C 275.18 328.52 273.56 329.35 272.50 330.47 C 269.52 330.22 265.00 331.27 263.71 327.63 C 259.56 315.09 255.67 302.40 252.88 289.49 C 249.19 301.24 245.70 313.06 242.43 324.94 C 241.88 326.87 240.87 328.61 239.93 330.38 C 236.46 330.48 231.81 331.25 229.81 327.62 C 225.54 312.80 221.30 297.97 217.07 283.14 C 216.15 279.76 215.05 276.32 215.57 272.77 Z" fill="#80b653" opacity="1.00" stroke="#80b653" stroke-width="0.25"/>
<path d="M 335.42 275.26 C 336.92 271.26 343.19 270.96 345.58 274.37 C 345.79 280.20 345.52 286.03 345.71 291.85 C 348.71 289.39 351.93 286.52 356.03 286.41 C 364.05 285.64 371.74 291.05 374.98 298.21 C 378.19 305.94 377.77 315.18 373.48 322.42 C 370.12 328.12 363.44 331.08 357.04 331.41 C 352.70 331.68 348.90 329.23 345.50 326.85 C 345.47 327.65 345.42 329.24 345.39 330.04 C 342.53 330.26 339.64 330.68 336.79 330.24 C 334.49 329.15 334.89 326.07 334.92 323.97 C 335.61 318.30 334.51 312.63 334.88 306.96 C 335.63 296.41 334.74 285.80 335.42 275.26 Z" fill="#80b653" opacity="1.00" stroke="#80b653" stroke-width="0.25"/>
<path d="M 301.12 288.28 C 307.07 285.86 314.10 286.08 319.70 289.30 C 327.05 293.73 329.80 303.49 327.88 311.52 C 318.25 311.78 308.61 311.44 298.98 311.69 C 299.58 315.13 300.92 319.02 304.41 320.49 C 310.17 323.49 317.06 322.07 322.22 318.51 C 325.12 319.64 327.84 322.18 326.55 325.61 C 322.70 329.33 317.11 330.64 311.95 331.35 C 302.93 332.49 293.65 327.28 289.70 319.14 C 288.29 315.62 287.94 311.78 287.85 308.03 C 287.80 299.58 293.06 291.19 301.12 288.28 Z" fill="#80b653" opacity="1.00" stroke="#80b653" stroke-width="0.25"/>
<path d="M 352.76 296.07 C 355.69 295.38 359.00 295.79 361.60 297.36 C 365.79 300.39 366.76 306.11 366.06 310.94 C 365.60 315.26 363.23 319.96 358.87 321.40 C 356.13 321.99 352.85 322.36 350.51 320.47 C 342.43 314.70 344.32 300.41 352.76 296.07 Z" fill="#ffffff" opacity="1.00" stroke="#ffffff" stroke-width="0.25"/>
<path d="M 298.83 304.28 C 299.44 297.99 306.08 294.29 311.95 295.71 C 315.69 296.71 318.97 300.17 318.83 304.21 C 312.17 304.29 305.50 304.32 298.83 304.28 Z" fill="#ffffff" opacity="1.00" stroke="#ffffff" stroke-width="0.25"/>
<path d="M 85.55 309.29 C 90.02 309.04 94.49 309.74 98.96 309.43 C 102.14 309.43 105.62 308.70 108.53 310.38 C 118.59 315.84 126.16 326.60 125.91 338.32 C 105.64 338.22 85.37 338.19 65.10 338.30 C 65.73 330.97 67.92 323.51 72.95 317.96 C 76.38 314.21 80.21 309.95 85.55 309.29 Z" fill="#ffffff" opacity="1.00" stroke="#ffffff" stroke-width="0.25"/>
</svg>