<?xml version="1.0" encoding="UTF-8" standalone="no"?>
<!-- Created with Inkscape (http://www.inkscape.org/) -->

<svg
   width="4503"
   height="1200"
   viewBox="0 0 1191.4187 317.5"
   version="1.1"
   id="svg1"
   xml:space="preserve"
   inkscape:export-filename="bitmap.svg"
   inkscape:export-xdpi="96"
   inkscape:export-ydpi="96"
   inkscape:version="1.4.2 (f4327f4, 2025-05-13)"
   sodipodi:docname="logo_prancha.svg"
   xmlns:inkscape="http://www.inkscape.org/namespaces/inkscape"
   xmlns:sodipodi="http://sodipodi.sourceforge.net/DTD/sodipodi-0.dtd"
   xmlns="http://www.w3.org/2000/svg"
   xmlns:svg="http://www.w3.org/2000/svg"><sodipodi:namedview
     id="namedview1"
     pagecolor="#505050"
     bordercolor="#eeeeee"
     borderopacity="1"
     inkscape:showpageshadow="0"
     inkscape:pageopacity="0"
     inkscape:pagecheckerboard="0"
     inkscape:deskcolor="#d1d1d1"
     inkscape:document-units="px"
     showguides="false"
     inkscape:zoom="0.125"
     inkscape:cx="1512"
     inkscape:cy="1036"
     inkscape:window-width="1920"
     inkscape:window-height="1009"
     inkscape:window-x="-8"
     inkscape:window-y="-8"
     inkscape:window-maximized="1"
     inkscape:current-layer="layer1" /><defs
     id="defs1"><rect
       x="1275.6206"
       y="1606.5466"
       width="3274.9397"
       height="1858.2052"
       id="rect10" /></defs><g
     inkscape:label="Camada 1"
     inkscape:groupmode="layer"
     id="layer1"><g
       style="fill:#646464;fill-opacity:1;stroke:none;stroke-width:1.99031;stroke-dasharray:none;stroke-opacity:1"
       id="g1"
       transform="matrix(1.5952254,0,0,1.5952254,29.390734,28.522395)"><g
         id="g3"
         style="fill:#646464;fill-opacity:1;stroke:none;stroke-width:1.99031;stroke-dasharray:none;stroke-opacity:1">
	<path
   d="M 43.488,64.648 H 21 c -11.58,0 -21,-9.421 -21,-21 V 26.013 c 0,-11.58 9.42,-21 21,-21 h 22.488 c 11.579,0 21,9.42 21,21 v 17.635 c 0,3.057 -0.653,6.01 -1.944,8.792 0.783,2.971 2.37,5.602 4.724,7.83 l 2.393,2.265 -3.113,1.077 c -1.682,0.582 -3.467,0.877 -5.307,0.877 v 0 c -2.758,0 -5.647,-0.651 -8.603,-1.937 -2.84,1.375 -5.983,2.096 -9.15,2.096 z M 21,9.013 c -9.374,0 -17,7.626 -17,17 v 17.635 c 0,9.374 7.626,17 17,17 h 22.488 c 2.841,0 5.655,-0.717 8.14,-2.073 l 0.896,-0.489 0.923,0.44 c 3.047,1.453 5.952,2.116 8.635,1.936 -1.764,-2.334 -2.972,-4.951 -3.604,-7.818 l -0.153,-0.697 0.322,-0.637 c 1.222,-2.412 1.841,-4.989 1.841,-7.661 V 26.013 c 0,-9.374 -7.626,-17 -17,-17 H 21 Z"
   id="path1"
   style="fill:#646464;fill-opacity:1;stroke:none;stroke-width:1.99031;stroke-dasharray:none;stroke-opacity:1" />
	<circle
   cx="49.195999"
   cy="35.831001"
   r="4.2059999"
   id="circle1"
   style="fill:#646464;fill-opacity:1;stroke:none;stroke-width:1.99031;stroke-dasharray:none;stroke-opacity:1" />
	<circle
   cx="32.040001"
   cy="35.831001"
   r="4.2059999"
   id="circle2"
   style="fill:#646464;fill-opacity:1;stroke:none;stroke-width:1.99031;stroke-dasharray:none;stroke-opacity:1" />
	<circle
   cx="14.883"
   cy="35.831001"
   r="4.2059999"
   id="circle3"
   style="fill:#646464;fill-opacity:1;stroke:none;stroke-width:1.99031;stroke-dasharray:none;stroke-opacity:1" />
</g></g><path
       id="path6"
       style="fill:none;stroke:#646464;stroke-width:6.47959;stroke-opacity:1"
       d="M 252.56588,314.26021 A 96.390011,107.62748 0 0 0 156.22649,210.11139 96.390011,107.62748 0 0 0 59.886613,314.26021 Z M 50.467919,3.239795 c -26.164299,0 -47.228124,21.06383 -47.228124,47.22813 V 267.03208 c 0,26.1643 21.063825,47.22813 47.228124,47.22813 h 9.418694 a 96.390011,107.62748 0 0 1 96.339877,-104.14882 96.390011,107.62748 0 0 1 96.33939,104.14882 h 14.46619 c 26.1643,0 47.22813,-21.06383 47.22813,-47.22813 V 50.467925 c 0,-26.1643 -21.06383,-47.22813 -47.22813,-47.22813 z M 153.79057,133.97518 a 37.773322,37.773324 0 0 1 37.77299,37.77348 37.773322,37.773324 0 0 1 -37.77299,37.77299 37.773322,37.773324 0 0 1 -37.77349,-37.77299 37.773322,37.773324 0 0 1 37.77349,-37.77348 z" /><path
       id="rect8"
       style="fill:#646464;fill-opacity:1;stroke:none;stroke-width:4.66231;stroke-dasharray:none;stroke-opacity:1"
       d="m 197.2939,34.925005 c -2.59118,0 -4.67723,2.47889 -4.67723,5.55832 v 15.3417 c 0,3.07942 2.08605,5.55831 4.67723,5.55831 h 17.10387 c 2.59117,0 4.67723,-2.47889 4.67723,-5.55831 v -15.3417 c 0,-3.07943 -2.08606,-5.55832 -4.67723,-5.55832 z m 31.75,0 c -2.59118,0 -4.67723,2.47889 -4.67723,5.55832 v 15.3417 c 0,3.07942 2.08605,5.55831 4.67723,5.55831 h 17.10387 c 2.59117,0 4.67723,-2.47889 4.67723,-5.55831 v -15.3417 c 0,-3.07943 -2.08606,-5.55832 -4.67723,-5.55832 z m 31.75,0 c -2.59118,0 -4.67723,2.47889 -4.67723,5.55832 v 15.3417 c 0,3.07942 2.08605,5.55831 4.67723,5.55831 h 17.10387 c 2.59117,0 4.67723,-2.47889 4.67723,-5.55831 v -15.3417 c 0,-3.07943 -2.08606,-5.55832 -4.67723,-5.55832 z m -63.5,31.75 c -2.59118,0 -4.67723,2.47889 -4.67723,5.55832 v 15.3417 c 0,3.07942 2.08605,5.55831 4.67723,5.55831 h 17.10387 c 2.59117,0 4.67723,-2.47889 4.67723,-5.55831 v -15.3417 c 0,-3.07943 -2.08606,-5.55832 -4.67723,-5.55832 z m 31.75,0 c -2.59118,0 -4.67723,2.47889 -4.67723,5.55832 v 15.3417 c 0,3.07942 2.08605,5.55831 4.67723,5.55831 h 17.10387 c 2.59117,0 4.67723,-2.47889 4.67723,-5.55831 v -15.3417 c 0,-3.07943 -2.08606,-5.55832 -4.67723,-5.55832 z m 31.75,0 c -2.59118,0 -4.67723,2.47889 -4.67723,5.55832 v 15.3417 c 0,3.07942 2.08605,5.55831 4.67723,5.55831 h 17.10387 c 2.59117,0 4.67723,-2.47889 4.67723,-5.55831 v -15.3417 c 0,-3.07943 -2.08606,-5.55832 -4.67723,-5.55832 z m -63.5,31.75 c -2.59118,0 -4.67723,2.478875 -4.67723,5.558315 v 15.3417 c 0,3.07942 2.08605,5.55831 4.67723,5.55831 h 17.10387 c 2.59117,0 4.67723,-2.47889 4.67723,-5.55831 v -15.3417 c 0,-3.07944 -2.08606,-5.558315 -4.67723,-5.558315 z m 31.75,0 c -2.59118,0 -4.67723,2.478875 -4.67723,5.558315 v 15.3417 c 0,3.07942 2.08605,5.55831 4.67723,5.55831 h 17.10387 c 2.59117,0 4.67723,-2.47889 4.67723,-5.55831 v -15.3417 c 0,-3.07944 -2.08606,-5.558315 -4.67723,-5.558315 z m 31.75,0 c -2.59118,0 -4.67723,2.478875 -4.67723,5.558315 v 15.3417 c 0,3.07942 2.08605,5.55831 4.67723,5.55831 h 17.10387 c 2.59117,0 4.67723,-2.47889 4.67723,-5.55831 v -15.3417 c 0,-3.07944 -2.08606,-5.558315 -4.67723,-5.558315 z" /><path
       id="text8"
       style="font-style:normal;font-variant:normal;font-weight:bold;font-stretch:normal;font-size:176.389px;font-family:Sen;-inkscape-font-specification:'Sen, Bold';font-variant-ligatures:normal;font-variant-caps:normal;font-variant-numeric:normal;font-variant-east-asian:normal;text-align:start;writing-mode:lr-tb;direction:ltr;text-anchor:start;fill:#646464;fill-opacity:1;stroke:none;stroke-width:6.61458;stroke-dasharray:none;stroke-opacity:1"
       d="m 892.45198,40.755135 c -33.07294,0 -60.97819,24.63258 -60.97819,60.289345 0,35.65676 27.90525,60.28934 60.97819,60.28934 14.46941,0 26.35481,-4.65105 34.27853,-11.7135 v -23.25439 c -8.61274,6.71794 -18.25899,12.23026 -33.58968,12.23026 -20.67059,0 -37.20703,-16.01985 -37.20703,-37.55171 0,-21.531865 16.53644,-37.723795 37.20703,-37.723795 15.33069,0 23.42682,6.37307 31.86731,12.7465 v -24.11532 c -7.92373,-6.8902 -18.08675,-11.19673 -32.55616,-11.19673 z M 620.97811,42.477505 567.23463,158.75 h 28.07787 l 8.78499,-21.53202 h 45.64734 l 8.785,21.53202 h 28.07735 L 632.86369,42.477505 Z m 84.57727,0 V 158.75 h 23.94324 V 89.158895 l 68.21289,70.452035 h 8.785 V 43.338955 h -23.94324 v 70.624625 l -68.2129,-71.486075 z m 420.12992,0 -53.744,116.272495 h 28.0779 l 8.785,-21.53202 h 45.6473 l 8.785,21.53202 h 28.0779 L 1137.5709,42.477505 Z m -775.83637,0.86145 V 158.75 h 23.94376 v -39.61877 c 5.68441,2.75608 14.12488,5.16764 24.28792,5.16764 23.08215,0 43.06352,-16.19193 43.06352,-39.790855 0,-25.49372 -22.04842,-41.16906 -43.58029,-41.16906 z m 115.41104,0 V 158.75 h 23.94324 V 111.37976 L 532.26673,158.75 h 31.52314 l -43.23612,-44.61433 c 18.77579,-1.72255 35.13998,-13.43604 35.13998,-33.417605 0,-25.49372 -22.04894,-37.37911 -43.5808,-37.37911 z m 486.44783,0 V 158.75 h 23.94324 v -46.85347 h 53.57146 V 158.75 h 23.7711 V 43.338955 h -23.7711 v 47.02555 h -53.57146 v -47.02555 z m -577.91511,22.39295 h 19.80912 c 12.40235,0 23.08231,6.71827 23.08231,18.77611 0,10.67981 -8.78515,19.120285 -22.56554,19.120285 -7.57922,0 -15.15825,-1.72238 -20.32589,-3.789435 z m 115.41052,0 h 19.80913 c 12.40235,0 22.22087,4.65104 22.22087,15.84761 0,10.33529 -8.78464,16.19229 -22.56504,16.19229 -6.89019,0 -13.78055,-1.20595 -19.46496,-2.9285 z m 137.80399,15.84761 14.46941,35.312575 H 612.5378 Z m 504.7067,0 14.4694,35.312575 h -28.9388 z m -779.28115,92.982955 38.41316,115.41104 h 16.53646 l 25.66561,-74.24198 25.66614,74.24198 h 16.53646 l 38.9294,-115.41104 h -27.21591 l -21.7041,72.86377 -23.94376,-72.86377 h -16.01969 l -24.28792,72.86377 -21.35942,-72.86377 z m 180.69543,0 v 115.41104 h 81.64876 V 268.78617 H 557.07142 V 240.8809 h 50.98759 v -19.46496 h -50.98759 v -26.1829 h 57.70552 v -20.67057 z m 112.65462,0 v 112.82722 c 10.85206,2.41157 31.35036,4.82296 46.50879,4.82296 27.90529,0 47.19815,-15.50275 47.19815,-34.79529 0,-16.70872 -11.19672,-23.77133 -21.53202,-26.69966 10.67981,-4.47863 16.0197,-13.78038 16.0197,-24.28793 0,-19.46479 -17.74241,-31.8673 -37.55171,-31.8673 z m 23.94376,21.53202 h 21.7041 c 11.02431,0 18.94768,4.82313 18.94768,13.95263 0,8.44049 -7.92337,13.60796 -18.94768,13.60796 h -21.7041 z m 0,45.30318 h 21.18734 c 12.74686,0 23.59856,3.7896 23.59856,13.43587 0,9.81852 -10.33494,15.67501 -23.59856,15.67501 -4.99539,0 -14.64166,-0.51676 -21.18734,-2.06706 z" /></g></svg>
